<mxfile host="app.diagrams.net" modified="2024-02-11T22:22:54.011Z" agent="Mozilla/5.0 (X11; Ubuntu; Linux x86_64; rv:122.0) Gecko/20100101 Firefox/122.0" version="23.1.2" etag="1-GYqVJMaRp9O-EDLNPb" type="github">
  <diagram name="Page-1" id="0ACXb3Lctk7xoEKNPUTT">
    <mxGraphModel>
      <root>
        <mxCell id="0" />
        <mxCell id="1" parent="0" />
      </root>
    </mxGraphModel>
  </diagram>
</mxfile>
